<svg width="46" height="46" viewBox="0 0 46 46" fill="none" xmlns="http://www.w3.org/2000/svg">
<circle cx="23" cy="23" r="23" fill="#0066FF"/>
<path d="M23 25.9333C24.62 25.9333 25.9333 24.62 25.9333 23C25.9333 21.3799 24.62 20.0667 23 20.0667C21.3799 20.0667 20.0667 21.3799 20.0667 23C20.0667 24.62 21.3799 25.9333 23 25.9333Z" fill="white"/>
<path d="M20.25 13.8334L18.5725 15.6667H15.6667C14.6584 15.6667 13.8334 16.4917 13.8334 17.5V28.5C13.8334 29.5084 14.6584 30.3334 15.6667 30.3334H30.3334C31.3417 30.3334 32.1667 29.5084 32.1667 28.5V17.5C32.1667 16.4917 31.3417 15.6667 30.3334 15.6667H27.4275L25.75 13.8334H20.25ZM23 27.5834C20.47 27.5834 18.4167 25.53 18.4167 23C18.4167 20.47 20.47 18.4167 23 18.4167C25.53 18.4167 27.5834 20.47 27.5834 23C27.5834 25.53 25.53 27.5834 23 27.5834Z" fill="white"/>
</svg>
