<svg width="17" height="15" viewBox="0 0 17 15" fill="none" xmlns="http://www.w3.org/2000/svg">
<path d="M12.0251 5.178L8.77589 0.31157C8.63494 0.103857 8.39756 0 8.16017 0C7.92278 0 7.6854 0.103857 7.54445 0.318988L4.29522 5.178H0.741834C0.333825 5.178 0 5.51182 0 5.91983C0 5.9866 0.00741831 6.05336 0.0296733 6.12013L1.91393 12.9969C2.08455 13.6201 2.65576 14.08 3.33825 14.08H12.9821C13.6646 14.08 14.2358 13.6201 14.4138 12.9969L16.2981 6.12013L16.3203 5.91983C16.3203 5.51182 15.9865 5.178 15.5785 5.178H12.0251ZM5.93467 5.178L8.16017 1.91393L10.3857 5.178H5.93467ZM8.16017 11.1127C7.34415 11.1127 6.6765 10.445 6.6765 9.629C6.6765 8.81298 7.34415 8.14533 8.16017 8.14533C8.97619 8.14533 9.64384 8.81298 9.64384 9.629C9.64384 10.445 8.97619 11.1127 8.16017 11.1127Z" fill="white"/>
</svg>
