<svg width="17" height="16" viewBox="0 0 17 16" fill="none" xmlns="http://www.w3.org/2000/svg">
<path d="M16.2231 14.8134L13.5019 12.1529L13.4381 12.0559C13.3195 11.9378 13.1573 11.8713 12.9881 11.8713C12.8188 11.8713 12.6567 11.9378 12.5381 12.0559C10.2254 14.1776 6.66185 14.2929 4.21073 12.3254C1.75962 10.3578 1.18155 6.918 2.8599 4.28714C4.53824 1.65627 7.9522 0.650756 10.8377 1.93744C13.7231 3.22413 15.1847 6.40375 14.253 9.3676C14.1859 9.58171 14.2408 9.81456 14.3969 9.97842C14.553 10.1423 14.7867 10.2123 15.0099 10.162C15.2331 10.1118 15.4119 9.94892 15.479 9.73481C16.5927 6.21759 14.9107 2.43257 11.5211 0.828256C8.13145 -0.776053 4.05148 0.281821 1.92048 3.31754C-0.210515 6.35326 0.246996 10.4558 2.99705 12.9712C5.7471 15.4866 9.96439 15.66 12.9207 13.3792L15.3302 15.7349C15.5791 15.9771 15.9814 15.9771 16.2302 15.7349C16.4788 15.4892 16.4788 15.0937 16.2302 14.8481L16.2231 14.8134Z" fill="#757575"/>
</svg>
