<svg width="42" height="42" viewBox="0 0 42 42" fill="none" xmlns="http://www.w3.org/2000/svg">
<ellipse cx="20.6655" cy="20.6514" rx="20.6655" ry="20.6514" fill="#0066FF"/>
<g clip-path="url(#clip0_203_333)">
<path d="M30.5491 17.2754C30.5498 17.1572 30.5271 17.0401 30.4824 16.9307C30.4377 16.8213 30.3718 16.7218 30.2885 16.6379L26.4789 12.8308C26.3949 12.7476 26.2954 12.6818 26.1859 12.6371C26.0764 12.5924 25.9592 12.5698 25.841 12.5704C25.7227 12.5698 25.6055 12.5924 25.496 12.6371C25.3865 12.6818 25.287 12.7476 25.203 12.8308L22.6603 15.3719L12.8397 25.1858C12.7564 25.2697 12.6905 25.3692 12.6458 25.4786C12.6011 25.588 12.5784 25.7051 12.5791 25.8233V29.6303C12.5791 29.8685 12.6738 30.0968 12.8423 30.2652C13.0108 30.4336 13.2393 30.5282 13.4776 30.5282H17.2872C17.413 30.535 17.5387 30.5154 17.6564 30.4705C17.774 30.4257 17.8809 30.3566 17.9701 30.2678L27.7368 20.4539L30.2885 17.9578C30.3705 17.8708 30.4374 17.7706 30.4862 17.6615C30.4949 17.5899 30.4949 17.5176 30.4862 17.446C30.4904 17.4042 30.4904 17.3621 30.4862 17.3203L30.5491 17.2754ZM16.9189 28.7324H14.3761V26.1914L23.2982 17.2754L25.841 19.8164L16.9189 28.7324ZM27.1078 18.5504L24.5651 16.0094L25.841 14.7433L28.3747 17.2754L27.1078 18.5504Z" fill="white"/>
</g>
<defs>
<clipPath id="clip0_203_333">
<rect width="19.767" height="19.7535" fill="white" transform="translate(10.782 10.7747)"/>
</clipPath>
</defs>
</svg>
